<svg version="1.1" id="Layer_1" xmlns="http://www.w3.org/2000/svg" xmlns:xlink="http://www.w3.org/1999/xlink" x="0px" y="0px"
	 width="100%" viewBox="0 0 400 402" enable-background="new 0 0 400 402" xml:space="preserve">
<path fill="#000000" opacity="1.000000" stroke="none" 
	d="
M261.000000,403.000000 
	C174.000000,403.000000 87.500000,403.000000 1.000000,403.000000 
	C1.000000,269.000000 1.000000,135.000000 1.000000,1.000000 
	C134.333328,1.000000 267.666656,1.000000 401.000000,1.000000 
	C401.000000,135.000000 401.000000,269.000000 401.000000,403.000000 
	C354.500000,403.000000 308.000000,403.000000 261.000000,403.000000 
M254.064987,102.983879 
	C226.045120,102.942062 198.025253,102.900238 169.576065,102.110580 
	C153.559982,102.073814 137.543869,102.023926 121.527824,102.037079 
	C120.683205,102.037773 119.839027,102.572441 118.111580,102.984047 
	C116.846703,102.984047 115.581833,102.984047 114.000862,102.984047 
	C114.000862,105.467583 114.005592,107.442154 114.000183,109.416695 
	C113.794792,184.407852 113.585152,259.399017 113.446175,334.390289 
	C113.445160,334.940216 114.410324,335.491943 115.371475,336.796600 
	C115.864716,336.861084 116.357948,336.981995 116.851196,336.982056 
	C176.575150,336.986542 236.299118,336.986450 296.023041,336.941437 
	C297.038452,336.940674 298.053436,336.390625 299.793091,335.999603 
	C299.633392,334.594666 299.955841,332.848022 299.239624,331.837585 
	C291.931213,321.526886 284.363922,311.399963 277.043457,301.097626 
	C263.728058,282.358429 250.676300,263.430420 237.236145,244.781830 
	C227.549698,231.341614 217.307236,218.302826 207.562927,204.903076 
	C205.593796,202.195251 204.834885,199.590927 208.797409,196.300705 
	C217.983536,188.673080 226.330917,180.015884 234.827103,171.583405 
	C240.767303,165.687775 246.276031,159.358444 252.190796,153.435883 
	C257.485992,148.133713 263.228607,143.276871 268.497314,137.950058 
	C278.091278,128.250275 287.475891,118.343513 296.959717,108.534584 
	C298.426178,107.017883 299.955627,105.562134 302.156219,103.385559 
	C299.590912,103.123535 298.298737,102.991547 296.577332,102.111412 
	C283.558685,102.074371 270.540009,102.021278 257.521454,102.037430 
	C256.678680,102.038467 255.836563,102.572800 254.064987,102.983879 
z"/>
<path fill="#FFB34E" opacity="1.000000" stroke="none" 
	d="
M114.924347,336.042816 
	C114.410324,335.491943 113.445160,334.940216 113.446175,334.390289 
	C113.585152,259.399017 113.794792,184.407852 114.000183,109.416695 
	C114.005592,107.442154 114.000862,105.467583 114.000862,102.984047 
	C115.581833,102.984047 116.846703,102.984047 119.018372,102.978012 
	C136.618561,102.934113 153.311981,102.896263 170.005386,102.858414 
	C198.025253,102.900238 226.045120,102.942062 254.994843,102.978378 
	C269.618652,102.935104 283.312622,102.897331 297.006561,102.859558 
	C298.298737,102.991547 299.590912,103.123535 302.156219,103.385559 
	C299.955627,105.562134 298.426178,107.017883 296.959717,108.534584 
	C287.475891,118.343513 278.091278,128.250275 268.497314,137.950058 
	C263.228607,143.276871 257.485992,148.133713 252.190796,153.435883 
	C246.276031,159.358444 240.767303,165.687775 234.827103,171.583405 
	C226.330917,180.015884 217.983536,188.673080 208.797409,196.300705 
	C204.834885,199.590927 205.593796,202.195251 207.562927,204.903076 
	C217.307236,218.302826 227.549698,231.341614 237.236145,244.781830 
	C250.676300,263.430420 263.728058,282.358429 277.043457,301.097626 
	C284.363922,311.399963 291.931213,321.526886 299.239624,331.837585 
	C299.955841,332.848022 299.633392,334.594666 298.990417,336.009155 
	C294.555481,335.704681 290.923523,335.121155 287.290894,335.117126 
	C232.460464,335.056183 177.629959,335.057922 122.799530,335.110107 
	C120.174179,335.112610 117.549393,335.718140 114.924347,336.042816 
M128.982330,322.992920 
	C176.747055,322.996307 224.511765,323.000244 272.276489,322.999695 
	C273.440094,322.999664 274.603699,322.949280 275.767303,322.922363 
	C275.523254,322.528656 275.279236,322.134949 274.677521,321.167297 
	C271.861877,317.026886 269.136749,312.821442 266.214905,308.757355 
	C253.490036,291.057831 240.592270,273.481445 227.983429,255.699951 
	C217.984360,241.598846 208.304703,227.271072 198.504227,213.029480 
	C196.233948,209.730377 194.031647,210.021408 191.606934,212.879669 
	C189.015228,215.934814 186.438766,219.022675 183.619247,221.861435 
	C169.313110,236.265228 154.904892,250.567596 140.589813,264.962555 
	C136.380203,269.195648 132.358170,273.615265 127.496452,278.009918 
	C127.152603,278.333191 126.506393,278.658356 126.508408,278.979462 
	C126.594383,292.658997 126.714676,306.338593 126.924194,320.016693 
	C126.939110,320.990479 127.661072,321.953400 128.982330,322.992920 
z"/>
<path fill="#FFD296" opacity="1.000000" stroke="none" 
	d="
M115.147911,336.419708 
	C117.549393,335.718140 120.174179,335.112610 122.799530,335.110107 
	C177.629959,335.057922 232.460464,335.056183 287.290894,335.117126 
	C290.923523,335.121155 294.555481,335.704681 298.628204,336.057770 
	C298.053436,336.390625 297.038452,336.940674 296.023041,336.941437 
	C236.299118,336.986450 176.575150,336.986542 116.851196,336.982056 
	C116.357948,336.981995 115.864716,336.861084 115.147911,336.419708 
z"/>
<path fill="#FFFFFF" opacity="1.000000" stroke="none" 
	d="
M169.790726,102.484497 
	C153.311981,102.896263 136.618561,102.934113 119.459900,102.915245 
	C119.839027,102.572441 120.683205,102.037773 121.527824,102.037079 
	C137.543869,102.023926 153.559982,102.073814 169.790726,102.484497 
z"/>
<path fill="#FFFFFF" opacity="1.000000" stroke="none" 
	d="
M296.791931,102.485489 
	C283.312622,102.897331 269.618652,102.935104 255.459427,102.915962 
	C255.836563,102.572800 256.678680,102.038467 257.521454,102.037430 
	C270.540009,102.021278 283.558685,102.074371 296.791931,102.485489 
z"/>
<path fill="#000000" opacity="1.000000" stroke="none" 
	d="
M128.250168,277.949402 
	C132.358170,273.615265 136.380203,269.195648 140.589813,264.962555 
	C154.904892,250.567596 169.313110,236.265228 183.619247,221.861435 
	C186.438766,219.022675 189.015228,215.934814 191.606934,212.879669 
	C194.031647,210.021408 196.233948,209.730377 198.504227,213.029480 
	C208.304703,227.271072 217.984360,241.598846 227.983429,255.699951 
	C240.592270,273.481445 253.490036,291.057831 266.214905,308.757355 
	C269.136749,312.821442 271.861877,317.026886 274.393188,321.574036 
	C225.420761,321.955017 176.732681,321.929260 128.023865,321.440887 
	C128.085464,306.635315 128.167816,292.292358 128.250168,277.949402 
z"/>
<path fill="#FFFFFF" opacity="1.000000" stroke="none" 
	d="
M128.044617,321.903503 
	C176.732681,321.929260 225.420761,321.955017 274.572021,321.861023 
	C275.279236,322.134949 275.523254,322.528656 275.767303,322.922363 
	C274.603699,322.949280 273.440094,322.999664 272.276489,322.999695 
	C224.511765,323.000244 176.747055,322.996307 128.508362,322.702850 
	C128.037796,322.243011 128.041214,322.073273 128.044617,321.903503 
z"/>
<path fill="#FFE4BF" opacity="1.000000" stroke="none" 
	d="
M128.023865,321.440887 
	C128.041214,322.073273 128.037796,322.243011 128.044342,322.667084 
	C127.661072,321.953400 126.939110,320.990479 126.924194,320.016693 
	C126.714676,306.338593 126.594383,292.658997 126.508408,278.979462 
	C126.506393,278.658356 127.152603,278.333191 127.873306,277.979675 
	C128.167816,292.292358 128.085464,306.635315 128.023865,321.440887 
z"/>
</svg>