<?xml version="1.0" encoding="UTF-8"?>
<svg version="1.1" xmlns="http://www.w3.org/2000/svg" width="400" height="402">
<path d="M0 0 C0.74747865 -0.00085442 1.49495731 -0.00170885 2.26508683 -0.00258917 C4.76473635 -0.00423366 7.26431847 0.00126052 9.76396179 0.00672913 C11.55777993 0.00701125 13.35159819 0.00685278 15.14541626 0.00628662 C20.01274366 0.00599962 24.88004643 0.01188076 29.7473681 0.01886058 C34.83494457 0.02511018 39.9225216 0.02569919 45.01010132 0.02688599 C54.64308336 0.02999455 64.27605405 0.03820157 73.90903109 0.04823548 C84.87628872 0.05941132 95.84354688 0.06491078 106.81080878 0.06993091 C129.37031334 0.08038456 151.92980783 0.09797484 174.48930359 0.12025452 C173.80489927 4.17584605 173.27917338 5.76854946 169.98930359 8.30775452 C166.66578538 11.03185248 163.81813336 13.88379823 160.98930359 17.12025452 C157.67138793 20.89424105 154.22537297 24.17842535 150.38774109 27.40931702 C147.75625235 29.78090563 145.55533463 32.45130874 143.27055359 35.15150452 C141.45650899 37.15650118 139.55222682 38.87470409 137.48930359 40.62025452 C134.00056802 43.57589509 131.05273216 46.77726984 128.09086609 50.25306702 C125.99713453 52.69405162 123.86357358 54.94949338 121.48930359 57.12025452 C120.82930359 57.12025452 120.16930359 57.12025452 119.48930359 57.12025452 C119.48930359 57.78025452 119.48930359 58.44025452 119.48930359 59.12025452 C118.82930359 59.12025452 118.16930359 59.12025452 117.48930359 59.12025452 C117.15930359 60.11025452 116.82930359 61.10025452 116.48930359 62.12025452 C115.10649109 63.44447327 115.10649109 63.44447327 113.36430359 64.80775452 C110.61773017 67.06667102 108.28467443 69.40423879 105.98930359 72.12025452 C103.24807437 75.34703779 100.3603547 78.07044395 97.10258484 80.76478577 C94.74906307 82.74219994 92.63583116 84.92137262 90.48930359 87.12025452 C89.0965752 88.53997377 87.70052486 89.95643913 86.30180359 91.37025452 C85.6276239 92.05603577 84.95344421 92.74181702 84.25883484 93.44837952 C82.48930359 95.12025452 82.48930359 95.12025452 80.48930359 96.12025452 C80.96782217 101.05769626 82.28903031 103.69998288 85.36430359 107.55775452 C86.1751239 108.59673889 86.98594421 109.63572327 87.82133484 110.70619202 C88.2552655 111.2575885 88.68919617 111.80898499 89.13627625 112.37709045 C91.50659922 115.43088079 93.77474249 118.55916992 96.05180359 121.68275452 C96.99185011 122.96795293 97.93195333 124.25310988 98.87211609 125.53822327 C99.31974304 126.15101135 99.76737 126.76379944 100.2285614 127.39515686 C101.33200829 128.90502435 102.43780511 130.41317389 103.54399109 131.92103577 C108.00573417 138.02121978 112.36673844 144.18901129 116.71562195 150.36976624 C120.43522943 155.64804981 124.20023065 160.89166231 127.98930359 166.12025452 C132.69974327 172.62081523 137.35227996 179.15889374 141.96977234 185.72572327 C146.13455307 191.63949328 150.36724675 197.50239999 154.61186218 203.35902405 C158.99724413 209.41817553 163.32192367 215.51855782 167.62016296 221.63978577 C168.08487 222.30107483 168.54957703 222.96236389 169.02836609 223.64369202 C169.4566571 224.25567444 169.88494812 224.86765686 170.32621765 225.4981842 C171.28354612 226.83329973 172.2973509 228.12773478 173.32524109 229.40931702 C174.48930359 231.12025452 174.48930359 231.12025452 174.48930359 234.12025452 C171.52886793 235.60047235 168.52280606 235.26466472 165.27690125 235.26069641 C164.52522989 235.26366753 163.77355854 235.26663866 162.99910927 235.26969981 C160.46718376 235.27840783 157.93530541 235.27989681 155.40336609 235.28138733 C153.59353026 235.28601391 151.7836954 235.29103835 149.97386169 235.2964325 C145.04838346 235.30957144 140.12291887 235.31600403 135.19742584 235.32044315 C132.12359431 235.32337067 129.04976654 235.32747479 125.97593689 235.33194733 C116.36829584 235.34562442 106.76066334 235.35529079 97.15301323 235.35914922 C86.0438201 235.36363465 74.93474973 235.38120414 63.82559395 235.41014981 C55.24979459 235.43172315 46.67402988 235.44185112 38.09820366 235.44319034 C32.97064883 235.44424123 27.84320936 235.45020945 22.71568298 235.46800995 C17.89599287 235.48441628 13.07650577 235.48668261 8.25679779 235.47787094 C6.48381763 235.47709663 4.71082689 235.4814947 2.93787384 235.49132919 C0.52557168 235.50392991 -1.88599841 235.49823769 -4.29829407 235.48774719 C-5.00703863 235.4958036 -5.7157832 235.50386 -6.44600487 235.51216054 C-8.39659119 235.49219131 -8.39659119 235.49219131 -11.51069641 235.12025452 C-14.18001041 231.11628351 -13.76395784 227.63558925 -13.71324158 222.98983765 C-13.71086687 222.04397378 -13.70849217 221.09810991 -13.70604551 220.1235835 C-13.69559285 216.94047059 -13.67071069 213.75763166 -13.64595032 210.57460022 C-13.63552878 208.29832838 -13.6259927 206.02205234 -13.61727905 203.74577332 C-13.59105367 197.55392857 -13.55238848 191.36221568 -13.51155519 185.17045236 C-13.47100579 178.70422577 -13.44180614 172.23794839 -13.41142273 165.77166748 C-13.3588697 154.91443102 -13.299283 144.0572571 -13.23432922 133.2000885 C-13.16744193 122.01651661 -13.10477755 110.83293424 -13.04780579 99.64930725 C-13.04429334 98.96009944 -13.0407809 98.27089163 -13.03716202 97.56079874 C-13.01956745 94.10329053 -13.00205605 90.64578191 -12.984586 87.18827307 C-12.83951692 58.49885834 -12.67971227 29.80953761 -12.51069641 1.12025452 C-8.32374967 0.10477954 -4.28301671 -0.01798725 0 0 Z M68.48930359 108.12025452 C64.80806393 111.12534812 61.43196613 114.06642644 58.37382507 117.7066803 C53.96671309 122.80540628 49.19287217 127.50463553 44.39945984 132.23744202 C43.44502467 133.1849157 42.49096548 134.13276826 41.53726196 135.08097839 C37.52225194 139.07174632 33.50133123 143.0565223 29.47636414 147.0372467 C27.00022447 149.48668159 24.52891637 151.94090479 22.06056023 154.39818192 C20.66602311 155.78348838 19.26593286 157.1631974 17.86578369 158.54283142 C17.0274852 159.37775116 16.18918671 160.2126709 15.32548523 161.07289124 C14.21131981 162.17587051 14.21131981 162.17587051 13.074646 163.3011322 C11.27030241 164.96938549 11.27030241 164.96938549 11.48930359 167.12025452 C10.16930359 167.78025452 8.84930359 168.44025452 7.48930359 169.12025452 C-3.28316648 180.15154552 -3.28316648 180.15154552 1.48930359 220.12025452 C49.99930359 220.12025452 98.50930359 220.12025452 148.48930359 220.12025452 C145.50450531 214.76528237 145.50450531 214.76528237 142.14945984 209.78822327 C141.73317322 209.22699768 141.3168866 208.66577209 140.88798523 208.08753967 C140.44704529 207.50021057 140.00610535 206.91288147 139.55180359 206.30775452 C138.57201657 204.98659977 137.59287767 203.66496419 136.61430359 202.34291077 C136.10383484 201.65471252 135.59336609 200.96651428 135.06742859 200.25746155 C132.37038665 196.6049391 129.70973477 192.92629245 127.05180359 189.24525452 C126.50596619 188.48946106 125.96012878 187.7336676 125.39775085 186.95497131 C121.23122445 181.17396973 117.11773335 175.35683759 113.01786804 169.52845764 C109.29382907 164.24153726 105.5272634 158.98654283 101.73930359 153.74525452 C100.91849304 152.60842224 100.91849304 152.60842224 100.08110046 151.44862366 C97.76019044 148.23904198 95.4338334 145.03476354 93.06742859 141.85853577 C90.19108883 137.98196508 87.45775939 134.22498423 85.23930359 129.93275452 C82.71877175 125.16205931 79.52640012 120.92999705 76.30180359 116.62025452 C75.76587585 115.90071594 75.22994812 115.18117737 74.67778015 114.43983459 C72.06452226 110.72780769 72.06452226 110.72780769 68.48930359 108.12025452 Z " fill="#FFB451" transform="translate(125.51069641113281,100.87974548339844)"/>
<path d="" fill="#FFFFFF" transform="translate(0,0)"/>
</svg>
